<svg xmlns="http://www.w3.org/2000/svg" width="750" height="937.5" viewBox="0 0 750 937.5"><g transform="translate(-191 -317)"><path d="M608.82,363.484l-21.07,23.032,95.824,87.843A109.633,109.633,0,0,1,719,555V937.5h31.25V555a140.989,140.989,0,0,0-45.594-103.676Zm0,0" transform="translate(190.75 317)"/><path d="M484.625,0H78.375A78.224,78.224,0,0,0,.25,78.125v781.25A78.224,78.224,0,0,0,78.375,937.5H469V909.547A355.229,355.229,0,0,1,528.875,711.8a15.622,15.622,0,0,0-1.953-19.719L417.547,582.7a50.675,50.675,0,0,1,3.719-75,52.63,52.63,0,0,1,69.953,5.387L645.453,667.328l22.094-22.094L562.75,540.406V78.125A78.224,78.224,0,0,0,484.625,0ZM531.5,509.156l-18.187-18.187a84.1,84.1,0,0,0-111.938-7.4A81.937,81.937,0,0,0,395.453,604.8L495.922,705.27a386.324,386.324,0,0,0-58.063,200.98H78.375A46.882,46.882,0,0,1,31.5,859.375V812.5H422.125V781.25H31.5V125h500Zm0-415.406H31.5V78.125A46.882,46.882,0,0,1,78.375,31.25h406.25A46.882,46.882,0,0,1,531.5,78.125Zm0,0" transform="translate(190.75 317)"/><path d="M94,281.25h62.5A31.246,31.246,0,0,0,187.75,250V187.5a31.246,31.246,0,0,0-31.25-31.25H94A31.246,31.246,0,0,0,62.75,187.5V250A31.246,31.246,0,0,0,94,281.25Zm0-93.75h62.5V250H94Zm0,0" transform="translate(190.75 317)"/><path d="M250.25,281.25h62.5A31.246,31.246,0,0,0,344,250V187.5a31.246,31.246,0,0,0-31.25-31.25h-62.5A31.246,31.246,0,0,0,219,187.5V250A31.246,31.246,0,0,0,250.25,281.25Zm0-93.75h62.5V250h-62.5Zm0,0" transform="translate(190.75 317)"/><path d="M406.5,281.25H469A31.246,31.246,0,0,0,500.25,250V187.5A31.246,31.246,0,0,0,469,156.25H406.5a31.246,31.246,0,0,0-31.25,31.25V250A31.246,31.246,0,0,0,406.5,281.25Zm0-93.75H469V250H406.5Zm0,0" transform="translate(190.75 317)"/><path d="M94,437.5h62.5a31.246,31.246,0,0,0,31.25-31.25v-62.5A31.246,31.246,0,0,0,156.5,312.5H94a31.246,31.246,0,0,0-31.25,31.25v62.5A31.246,31.246,0,0,0,94,437.5Zm0-93.75h62.5v62.5H94Zm0,0" transform="translate(190.75 317)"/><path d="M94,593.75h62.5a31.246,31.246,0,0,0,31.25-31.25V500a31.246,31.246,0,0,0-31.25-31.25H94A31.246,31.246,0,0,0,62.75,500v62.5A31.246,31.246,0,0,0,94,593.75ZM94,500h62.5v62.5H94Zm0,0" transform="translate(190.75 317)"/><path d="M250.25,437.5h62.5A31.246,31.246,0,0,0,344,406.25v-62.5a31.246,31.246,0,0,0-31.25-31.25h-62.5A31.246,31.246,0,0,0,219,343.75v62.5A31.246,31.246,0,0,0,250.25,437.5Zm0-93.75h62.5v62.5h-62.5Zm0,0" transform="translate(190.75 317)"/><path d="M406.5,437.5H469a31.246,31.246,0,0,0,31.25-31.25v-62.5A31.246,31.246,0,0,0,469,312.5H406.5a31.246,31.246,0,0,0-31.25,31.25v62.5A31.246,31.246,0,0,0,406.5,437.5Zm0-93.75H469v62.5H406.5Zm0,0" transform="translate(190.75 317)"/><path d="M250.25,593.75h62.5A31.246,31.246,0,0,0,344,562.5V500a31.246,31.246,0,0,0-31.25-31.25h-62.5A31.246,31.246,0,0,0,219,500v62.5A31.246,31.246,0,0,0,250.25,593.75Zm0-93.75h62.5v62.5h-62.5Zm0,0" transform="translate(190.75 317)"/><path d="M94,750h62.5a31.246,31.246,0,0,0,31.25-31.25v-62.5A31.246,31.246,0,0,0,156.5,625H94a31.246,31.246,0,0,0-31.25,31.25v62.5A31.246,31.246,0,0,0,94,750Zm0-93.75h62.5v62.5H94Zm0,0" transform="translate(190.75 317)"/><path d="M250.25,750h62.5A31.246,31.246,0,0,0,344,718.75v-62.5A31.246,31.246,0,0,0,312.75,625h-62.5A31.246,31.246,0,0,0,219,656.25v62.5A31.246,31.246,0,0,0,250.25,750Zm0-93.75h62.5v62.5h-62.5Zm0,0" transform="translate(190.75 317)"/><path d="M265.875,843.75h31.25V875h-31.25Zm0,0" transform="translate(190.75 317)"/></g></svg>