<svg xmlns="http://www.w3.org/2000/svg" width="33.774" height="33.774" viewBox="0 0 33.774 33.774">
  <g id="play-button" transform="translate(0 0)">
    <g id="Group_14" data-name="Group 14" transform="translate(0 0)">
      <g id="Group_13" data-name="Group 13" transform="translate(0 0)">
        <path id="Path_5" data-name="Path 5" d="M31.507,8.447A16.88,16.88,0,0,0,.583,12.518,16.88,16.88,0,0,0,12.519,33.192a16.971,16.971,0,0,0,4.4.582A16.886,16.886,0,0,0,31.507,8.447ZM31.495,20.8a15.122,15.122,0,0,1-27.7,3.647A15.133,15.133,0,0,1,16.864,1.758,15.206,15.206,0,0,1,20.8,2.28,15.122,15.122,0,0,1,31.495,20.8Z" transform="translate(-0.001 0)"/>
      </g>
    </g>
    <g id="Group_16" data-name="Group 16" transform="translate(11.374 8.779)">
      <g id="Group_15" data-name="Group 15">
        <path id="Path_6" data-name="Path 6" d="M186.034,139.6l-10.853-6.266a1.84,1.84,0,0,0-2.759,1.593v12.532a1.835,1.835,0,0,0,2.759,1.593l10.853-6.266a1.84,1.84,0,0,0,0-3.186Zm-.879,1.664L174.3,147.527a.082.082,0,0,1-.122-.071V134.924a.073.073,0,0,1,.041-.071.083.083,0,0,1,.042-.012.077.077,0,0,1,.04.012l10.853,6.266a.082.082,0,0,1,0,.141Z" transform="translate(-172.422 -133.082)"/>
      </g>
    </g>
    <g id="Group_18" data-name="Group 18" transform="translate(17.644 3.882)">
      <g id="Group_17" data-name="Group 17">
        <path id="Path_7" data-name="Path 7" d="M277.095,63.841a13.256,13.256,0,0,0-8.622-4.978.879.879,0,1,0-.238,1.742,11.484,11.484,0,0,1,7.469,4.312.879.879,0,0,0,1.39-1.076Z" transform="translate(-267.475 -58.855)"/>
      </g>
    </g>
  </g>
</svg>
